<?xml version="1.0" encoding="utf-8"?>
<!-- Generator: Adobe Illustrator 16.0.0, SVG Export Plug-In . SVG Version: 6.00 Build 0)  -->
<!DOCTYPE svg PUBLIC "-//W3C//DTD SVG 1.1//EN" "http://www.w3.org/Graphics/SVG/1.1/DTD/svg11.dtd">
<svg version="1.1" id="xiaoshu" xmlns="http://www.w3.org/2000/svg" xmlns:xlink="http://www.w3.org/1999/xlink" x="0px" y="0px"
	 width="100%" height="300px" viewBox="0 0 650 300" enable-background="new 0 0 650 300" xml:space="preserve">
   <g id="like">
    <path fill="none" stroke="#2377C8" stroke-miterlimit="10" d="M328,233c-2-4" />
    <a xlink:href="http://suppresswarnings.com/like.html" target="_blank">
     <text x="200" y="180" id="liketext" fill="orange">先赞一个亿</text>
    </a>
   </g>
  <g id="tudi">
    <path fill="none" stroke="#2377C8" stroke-miterlimit="10" d="M49.44,324c40.421-31.391,118.683-36.551,170.284-25.37
	s52.461,18.491,140.613,5.159c88.153-13.328,179.745-23.219,247.256,19.782"/>
  </g>
  <g id="shugan">
    <path fill="none" stroke="#2377C8" stroke-miterlimit="10" d="M339.063,306.832c0,0,2.354-0.645,2.791-4.743
	c0.385-3.619-2.146-14.294-3.229-25.673c-1.133-11.911-12.57-20.59-12.57-20.59s8.118,4.968,12.568,11.042
	c0,0,0.787-10.9,4.104-18.38c0,0-3.906-8.1-4.168-19.965c0,0,2.813,13.295,5.893,15.938c0,0,6.414-14.508,11.129-18.01
	c0,0-16.082,26.229-11.194,51.957c0,0,6.458,0.669,21.997-14.675c0,0-5.586,11.244-20.162,21.44c0,0,0.43,16.217,9.771,19.267"/>
  </g>
  <g id="yezi">
    <g>
      <g>
        <path fill="#4DD7D2" d="M328.833,233.779c-2.034-4.049,0.208-9.121,2.764-8.361c2.471,0.715,4.061,2.104,4.605,5.063
				c0.229,1.504,0.083,4.668,0.663,7.641c0.475,2.802,2.375,4.283,2.357,4.249c-0.011-0.013-1.813-1.17-4.17-2.593
				C332.419,238.32,329.745,235.846,328.833,233.779z"/>
      </g>
    </g>
    <g>
      <g>
        <path fill="#2377C8" d="M318.891,267.507c-3.663,0.132-6.597-1.913-7.391-5.468c-0.798-3.473,3.501-7.066,8.572-5.686
				c2.524,0.666,6.228,3.405,8.913,6.385c2.499,2.688,4.819,4.302,4.852,4.287c0.017,0.033-2.59-1.535-5.898-1.197
				C324.338,266.141,320.776,267.427,318.891,267.507z"/>
      </g>
    </g>
    <g>
      <g>
        <path fill="#7BFD84" d="M351.396,220.83c0.314-1.581,1.938-2.348,3.117-1.627c1.182,0.727,1.6,2.047,0.904,3.189
				c-0.357,0.584-1.434,1.42-2.342,2.309c-0.838,0.811-1.045,1.754-1.047,1.75c0.006-0.004,0.144-0.924-0.17-2.09
				C351.512,223.089,351.232,221.626,351.396,220.83z"/>
      </g>
    </g>
    <g opacity="0.5">
      <g>
        <path fill="#2377C8" d="M357.165,238.172c1.14,0.389,2.334,0.069,2.771-1.152c0.435-1.154-0.978-3.172-3.097-3.229
				c-1.041-0.039-2.573,0.817-3.36,2.044c-0.725,1.114-1.283,1.904-1.316,1.895c-0.002,0.029,0.738-0.797,1.927-0.688
				C355.393,237.173,356.568,237.962,357.165,238.172z"/>
      </g>
    </g>
    <g>
      <g>
        <path fill="#7BFD84" d="M356.256,256.35c0.787-4.221,4.146-7.184,7.094-5.979c2.906,1.2,4.1,5.374,2.064,9.698
				c-1.057,2.162-4.042,5.459-7.175,7.641c-2.854,1.988-4.855,3.766-4.843,3.826c-0.051,0.006,2.043-2.168,2.449-5.544
				C356.273,262.348,355.816,258.494,356.256,256.35z"/>
      </g>
    </g>
  </g>
</svg>
